<?xml version="1.0" encoding="UTF-8"?>
<svg width="28px" height="27px" viewBox="0 0 28 27" version="1.1" xmlns="http://www.w3.org/2000/svg" xmlns:xlink="http://www.w3.org/1999/xlink">
    <!-- Generator: Sketch 47.1 (45422) - http://www.bohemiancoding.com/sketch -->
    <title>ic_close</title>
    <desc>Created with Sketch.</desc>
    <defs></defs>
    <g id="转寄退回-飞机" stroke="none" stroke-width="1" fill="none" fill-rule="evenodd">
        <g id="1列表-五秒消失" transform="translate(-690.000000, -253.000000)" fill="#FF8B16">
            <path d="M705.043903,265.281999 L705.043903,248.9798 C705.043903,248.259119 704.45228,247.662951 703.722475,247.662951 C702.987582,247.662951 702.401046,248.252525 702.401046,248.9798 L702.401046,265.281999 L686.9798,265.281999 C686.259119,265.281999 685.662951,265.873622 685.662951,266.603427 C685.662951,267.33832 686.252525,267.924856 686.9798,267.924856 L702.401046,267.924856 L702.401046,283.346101 C702.401046,284.066783 702.99267,284.662951 703.722475,284.662951 C704.457368,284.662951 705.043903,284.073377 705.043903,283.346101 L705.043903,267.924856 L721.346101,267.924856 C722.066783,267.924856 722.662951,267.333232 722.662951,266.603427 C722.662951,265.868534 722.073377,265.281999 721.346101,265.281999 L705.043903,265.281999 Z" id="ic_close" transform="translate(704.162951, 266.162951) rotate(-45.000000) translate(-704.162951, -266.162951) "></path>
        </g>
    </g>
</svg>